<?xml version="1.0" encoding="UTF-8" standalone="no"?><!DOCTYPE svg PUBLIC "-//W3C//DTD SVG 1.1//EN" "http://www.w3.org/Graphics/SVG/1.1/DTD/svg11.dtd"><svg width="100%" height="100%" viewBox="0 0 932 1054" version="1.1" xmlns="http://www.w3.org/2000/svg" xmlns:xlink="http://www.w3.org/1999/xlink" xml:space="preserve" xmlns:serif="http://www.serif.com/" style="fill-rule:evenodd;clip-rule:evenodd;stroke-linecap:round;stroke-linejoin:round;stroke-miterlimit:1.5;"><path d="M14.849,272.652l-5.821,514.354l456.934,257.893l456.935,-255.028l-1.456,-524.383l-455.479,-256.46l-451.113,263.624Z" style="fill:#fff;stroke:#111d4e;stroke-width:18.06px;"/><g><g><g><g><g><g><path d="M570.531,732.522c-0.232,-2.259 0.349,-12.17 9.949,-24.12c3.704,-4.61 11.356,-13.027 26.988,-22.242" style="fill:none;stroke:#111d4e;stroke-width:11.11px;"/><path d="M644.179,639.897c0.232,2.259 -0.349,12.17 -9.949,24.12c-3.704,4.61 -11.356,13.026 -26.988,22.242" style="fill:none;stroke:#111d4e;stroke-width:11.11px;"/><path d="M570.829,548.263c-0.232,2.258 0.349,12.169 9.949,24.12c3.704,4.61 11.356,13.026 26.988,22.242" style="fill:none;stroke:#111d4e;stroke-width:11.11px;"/><path d="M570.829,548.56c-0.232,-2.259 0.349,-12.17 9.949,-24.12c3.704,-4.61 11.356,-13.026 26.988,-22.242" style="fill:none;stroke:#111d4e;stroke-width:11.11px;"/><path d="M644.477,455.935c0.232,2.259 -0.349,12.17 -9.949,24.12c-3.704,4.61 -11.356,13.026 -26.988,22.242" style="fill:none;stroke:#111d4e;stroke-width:11.11px;"/><path d="M644.08,640.689c0.232,-2.258 -0.349,-12.169 -9.95,-24.12c-3.703,-4.61 -11.356,-13.026 -26.987,-22.242" style="fill:none;stroke:#111d4e;stroke-width:11.11px;"/><path d="M644.477,732.522c0.232,-2.259 -0.349,-12.17 -9.949,-24.12c-3.704,-4.61 -11.356,-13.027 -26.988,-22.242" style="fill:none;stroke:#111d4e;stroke-width:11.11px;"/><path d="M570.829,639.897c-0.232,2.259 0.349,12.17 9.949,24.12c3.704,4.61 11.356,13.026 26.988,22.242" style="fill:none;stroke:#111d4e;stroke-width:11.11px;"/><path d="M644.179,548.263c0.232,2.258 -0.349,12.169 -9.949,24.12c-3.704,4.61 -11.356,13.026 -26.988,22.242" style="fill:none;stroke:#111d4e;stroke-width:11.11px;"/><path d="M644.179,548.56c0.232,-2.259 -0.349,-12.17 -9.949,-24.12c-3.704,-4.61 -11.356,-13.026 -26.988,-22.242" style="fill:none;stroke:#111d4e;stroke-width:11.11px;"/><path d="M570.531,455.935c-0.232,2.259 0.349,12.17 9.949,24.12c3.704,4.61 11.356,13.026 26.988,22.242" style="fill:none;stroke:#111d4e;stroke-width:11.11px;"/><path d="M570.928,640.689c-0.232,-2.258 0.349,-12.169 9.95,-24.12c3.703,-4.61 11.356,-13.026 26.987,-22.242" style="fill:none;stroke:#111d4e;stroke-width:11.11px;"/><path d="M569.649,459.36l71.485,-0" style="fill:none;stroke:#111d4e;stroke-width:4.04px;"/><path d="M575.209,473.625l60.365,-0" style="fill:none;stroke:#111d4e;stroke-width:4.04px;"/><path d="M583.153,486.305l43.683,-0" style="fill:none;stroke:#111d4e;stroke-width:4.04px;"/><path d="M572.826,640.484l71.486,-0" style="fill:none;stroke:#111d4e;stroke-width:4.04px;"/><path d="M578.387,656.334l60.364,-0" style="fill:none;stroke:#111d4e;stroke-width:4.04px;"/><path d="M586.33,671.392l43.683,-0" style="fill:none;stroke:#111d4e;stroke-width:4.04px;"/><path d="M576.798,626.063l60.365,-0" style="fill:none;stroke:#111d4e;stroke-width:4.04px;"/><path d="M584.742,611.005l43.683,0" style="fill:none;stroke:#111d4e;stroke-width:4.04px;"/><path d="M572.826,546.175l71.486,-0" style="fill:none;stroke:#111d4e;stroke-width:4.04px;"/><path d="M578.387,562.025l60.364,-0" style="fill:none;stroke:#111d4e;stroke-width:4.04px;"/><path d="M586.33,577.083l43.683,-0" style="fill:none;stroke:#111d4e;stroke-width:4.04px;"/><path d="M576.798,531.754l60.365,0" style="fill:none;stroke:#111d4e;stroke-width:4.04px;"/><path d="M584.742,516.696l43.683,0" style="fill:none;stroke:#111d4e;stroke-width:4.04px;"/><path d="M521.692,343.114l-76.01,-74.94" style="fill:none;stroke:#000;stroke-width:2.5px;"/><path d="M583.785,325.985l-138.103,-57.811" style="fill:none;stroke:#000;stroke-width:2.5px;"/><path d="M712.252,257.469l-122.044,71.727l122.044,-71.727Z" style="fill:none;stroke:#000;stroke-width:2.5px;"/><path d="M651.23,352.749l61.022,-95.28l-110.268,167.007l99.563,-71.727l109.197,-23.553l-78.151,70.657l-130.609,24.623l116.692,17.129l101.703,44.964l-129.538,-7.494l-88.857,-54.599" style="fill:none;stroke:#000;stroke-width:2.5px;"/><path d="M448.894,376.301l69.587,-32.117" style="fill:none;stroke:#000;stroke-width:2.5px;"/><path d="M596.632,425.547l-152.02,-48.175" style="fill:none;stroke:#000;stroke-width:2.5px;"/><path d="M520.622,342.043l76.01,83.504" style="fill:none;stroke:#000;stroke-width:2.5px;"/><path d="M589.138,330.267l9.635,90.998l-9.635,-90.998Z" style="fill:none;stroke:#000;stroke-width:2.5px;"/><path d="M446.218,252.116c9.588,-0 17.396,7.808 17.396,17.396c0,9.589 -7.808,17.397 -17.396,17.397c-9.589,0 -17.397,-7.808 -17.397,-17.397c-0,-9.588 7.808,-17.396 17.397,-17.396Z" style="fill:#ab495d;"/><path d="M585.391,308.32c9.588,0 17.396,7.808 17.396,17.397c0,9.589 -7.808,17.397 -17.396,17.397c-9.589,-0 -17.397,-7.808 -17.397,-17.397c0,-9.589 7.808,-17.397 17.397,-17.397Z" style="fill:#34a5ac;"/><path d="M708.505,241.41c9.589,0 17.397,7.808 17.397,17.397c0,9.588 -7.808,17.396 -17.397,17.396c-9.588,0 -17.396,-7.808 -17.396,-17.396c-0,-9.589 7.808,-17.397 17.396,-17.397Z" style="fill:#34a5ac;"/><path d="M646.948,329.732c9.589,-0 17.397,7.808 17.397,17.396c-0,9.589 -7.808,17.397 -17.397,17.397c-9.589,-0 -17.397,-7.808 -17.397,-17.397c0,-9.588 7.808,-17.396 17.397,-17.396Z" style="fill:#34a5ac;"/><path d="M804.856,316.35c9.589,-0 17.397,7.808 17.397,17.396c-0,9.589 -7.808,17.397 -17.397,17.397c-9.589,-0 -17.397,-7.808 -17.397,-17.397c0,-9.588 7.808,-17.396 17.397,-17.396Z" style="fill:#bababa;"/><path d="M700.476,332.408c9.589,-0 17.397,7.808 17.397,17.397c-0,9.588 -7.808,17.396 -17.397,17.396c-9.588,0 -17.396,-7.808 -17.396,-17.396c-0,-9.589 7.808,-17.397 17.396,-17.397Z" style="fill:#bababa;"/><path d="M724.564,377.907c9.588,-0 17.397,7.808 17.397,17.397c-0,9.588 -7.809,17.396 -17.397,17.396c-9.589,0 -17.397,-7.808 -17.397,-17.396c0,-9.589 7.808,-17.397 17.397,-17.397Z" style="fill:#bababa;"/><path d="M818.238,463.552c9.589,-0 17.397,7.808 17.397,17.397c-0,9.588 -7.808,17.396 -17.397,17.396c-9.588,0 -17.397,-7.808 -17.397,-17.396c0,-9.589 7.809,-17.397 17.397,-17.397Z" style="fill:#dd73db;"/><path d="M687.094,458.199c9.589,0 17.397,7.808 17.397,17.397c-0,9.588 -7.808,17.396 -17.397,17.396c-9.588,0 -17.396,-7.808 -17.396,-17.396c-0,-9.589 7.808,-17.397 17.396,-17.397Z" style="fill:#dd73db;"/><path d="M713.858,423.406c9.589,-0 17.397,7.808 17.397,17.396c-0,9.589 -7.808,17.397 -17.397,17.397c-9.588,0 -17.396,-7.808 -17.396,-17.397c-0,-9.588 7.808,-17.396 17.396,-17.396Z" style="fill:#dd73db;"/><path d="M443.541,361.848c9.589,0 17.397,7.809 17.397,17.397c-0,9.589 -7.808,17.397 -17.397,17.397c-9.588,-0 -17.397,-7.808 -17.397,-17.397c0,-9.588 7.809,-17.397 17.397,-17.397Z" style="fill:#ab495d;"/><path d="M518.481,327.055c9.588,0 17.396,7.808 17.396,17.397c0,9.588 -7.808,17.396 -17.396,17.396c-9.589,0 -17.397,-7.808 -17.397,-17.396c-0,-9.589 7.808,-17.397 17.397,-17.397Z" style="fill:#ab495d;"/><path d="M596.096,407.347c9.589,0 17.397,7.808 17.397,17.397c-0,9.589 -7.808,17.397 -17.397,17.397c-9.588,-0 -17.396,-7.808 -17.396,-17.397c-0,-9.589 7.808,-17.397 17.396,-17.397Z" style="fill:#ab495d;"/></g></g></g></g></g></g><path d="M94.021,598.392c-0,-2.241 -0.341,-4.23 -1.022,-5.966c-0.681,-1.736 -1.868,-3.307 -3.56,-4.713c-1.692,-1.407 -4.021,-2.747 -6.987,-4.021c-2.967,-1.275 -6.714,-2.571 -11.24,-3.89c-4.747,-1.406 -9.032,-2.977 -12.855,-4.713c-3.824,-1.736 -7.098,-3.725 -9.823,-5.966c-2.724,-2.242 -4.812,-4.813 -6.262,-7.713c-1.45,-2.901 -2.176,-6.219 -2.176,-9.955c0,-3.735 0.769,-7.185 2.308,-10.349c1.538,-3.165 3.746,-5.922 6.625,-8.274c2.878,-2.351 6.317,-4.186 10.317,-5.504c3.999,-1.319 8.46,-1.978 13.382,-1.978c7.208,0 13.327,1.374 18.359,4.12c5.032,2.747 8.867,6.329 11.504,10.746c2.637,4.417 3.955,9.13 3.955,14.14l-12.657,0c0,-3.604 -0.769,-6.801 -2.307,-9.592c-1.538,-2.79 -3.868,-4.988 -6.988,-6.592c-3.12,-1.604 -7.076,-2.406 -11.866,-2.406c-4.527,-0 -8.262,0.681 -11.207,2.044c-2.944,1.362 -5.131,3.208 -6.559,5.537c-1.428,2.329 -2.143,4.988 -2.143,7.977c0,2.021 0.429,3.856 1.286,5.504c0.857,1.648 2.197,3.175 4.021,4.582c1.824,1.406 4.153,2.703 6.988,3.889c2.835,1.187 6.23,2.329 10.185,3.428c5.45,1.538 10.152,3.252 14.107,5.142c3.956,1.89 7.219,4.01 9.79,6.362c2.571,2.351 4.483,5.01 5.735,7.976c1.253,2.967 1.879,6.318 1.879,10.053c-0,3.912 -0.791,7.45 -2.373,10.614c-1.582,3.164 -3.846,5.867 -6.79,8.108c-2.945,2.242 -6.472,3.967 -10.581,5.175c-4.109,1.209 -8.691,1.813 -13.745,1.813c-4.438,0 -8.8,-0.615 -13.085,-1.846c-4.285,-1.23 -8.175,-3.076 -11.669,-5.537c-3.493,-2.461 -6.284,-5.505 -8.372,-9.13c-2.087,-3.626 -3.131,-7.834 -3.131,-12.625l12.657,0c0,3.297 0.637,6.12 1.912,8.471c1.274,2.352 3.021,4.296 5.241,5.835c2.219,1.538 4.746,2.669 7.581,3.395c2.834,0.725 5.79,1.087 8.866,1.087c4.439,0 8.197,-0.615 11.273,-1.845c3.076,-1.231 5.417,-2.989 7.021,-5.274c1.604,-2.286 2.406,-4.988 2.406,-8.109Z" style="fill:#111d4e;fill-rule:nonzero;stroke:#111d4e;stroke-width:1px;stroke-linecap:butt;stroke-miterlimit:2;"/><path d="M164.822,606.171l-0,-54.847l12.261,-0l0,71.328l-11.668,-0l-0.593,-16.481Zm2.307,-15.03l5.076,-0.132c-0,4.746 -0.494,9.13 -1.483,13.151c-0.989,4.022 -2.582,7.505 -4.78,10.449c-2.197,2.945 -5.076,5.241 -8.636,6.889c-3.559,1.648 -7.888,2.472 -12.986,2.472c-3.472,0 -6.647,-0.505 -9.526,-1.516c-2.879,-1.011 -5.351,-2.571 -7.416,-4.681c-2.066,-2.109 -3.659,-4.856 -4.78,-8.24c-1.12,-3.384 -1.681,-7.449 -1.681,-12.196l0,-46.013l12.196,-0l-0,46.145c-0,3.209 0.363,5.856 1.088,7.944c0.725,2.088 1.714,3.736 2.966,4.944c1.253,1.209 2.659,2.055 4.219,2.538c1.56,0.484 3.175,0.725 4.846,0.725c5.185,0 9.295,-0.999 12.327,-2.999c3.032,-2 5.219,-4.703 6.559,-8.109c1.341,-3.406 2.011,-7.196 2.011,-11.371Z" style="fill:#111d4e;fill-rule:nonzero;stroke:#111d4e;stroke-width:1px;stroke-linecap:butt;stroke-miterlimit:2;"/><path d="M207.737,565.497l0,57.155l-12.261,-0l-0,-71.328l11.602,-0l0.659,14.173Zm-2.505,18.788l-5.669,-0.198c0.044,-4.878 0.681,-9.394 1.911,-13.547c1.231,-4.153 3.055,-7.768 5.472,-10.844c2.417,-3.077 5.428,-5.461 9.031,-7.153c3.604,-1.692 7.779,-2.538 12.526,-2.538c3.34,0 6.416,0.473 9.229,1.418c2.813,0.944 5.252,2.428 7.317,4.449c2.066,2.022 3.67,4.615 4.813,7.779c1.142,3.164 1.714,6.988 1.714,11.471l-0,47.53l-12.196,-0l-0,-46.937c-0,-3.736 -0.626,-6.724 -1.879,-8.966c-1.252,-2.241 -3.021,-3.878 -5.307,-4.911c-2.285,-1.033 -4.966,-1.549 -8.042,-1.549c-3.604,0 -6.614,0.637 -9.032,1.912c-2.417,1.274 -4.35,3.032 -5.801,5.274c-1.45,2.241 -2.494,4.801 -3.131,7.68c-0.637,2.878 -0.956,5.922 -0.956,9.13Zm46.212,-6.724l-8.175,2.505c0.044,-3.912 0.692,-7.669 1.945,-11.273c1.253,-3.604 3.076,-6.812 5.472,-9.625c2.395,-2.812 5.35,-5.043 8.866,-6.691c3.516,-1.648 7.537,-2.472 12.064,-2.472c3.823,0 7.218,0.506 10.185,1.516c2.966,1.011 5.472,2.56 7.515,4.648c2.044,2.087 3.593,4.757 4.648,8.01c1.054,3.252 1.582,7.119 1.582,11.602l-0,46.871l-12.262,-0l0,-47.003c0,-3.999 -0.626,-7.109 -1.879,-9.328c-1.252,-2.219 -3.01,-3.78 -5.273,-4.68c-2.264,-0.901 -4.956,-1.352 -8.076,-1.352c-2.681,0 -5.054,0.462 -7.119,1.384c-2.066,0.923 -3.802,2.187 -5.208,3.791c-1.407,1.604 -2.472,3.439 -3.198,5.505c-0.725,2.065 -1.087,4.263 -1.087,6.592Z" style="fill:#111d4e;fill-rule:nonzero;stroke:#111d4e;stroke-width:1px;stroke-linecap:butt;stroke-miterlimit:2;"/><path d="M326.134,565.497l-0,57.155l-12.262,-0l0,-71.328l11.603,-0l0.659,14.173Zm-2.505,18.788l-5.67,-0.198c0.044,-4.878 0.682,-9.394 1.912,-13.547c1.231,-4.153 3.055,-7.768 5.472,-10.844c2.417,-3.077 5.427,-5.461 9.031,-7.153c3.604,-1.692 7.779,-2.538 12.525,-2.538c3.34,0 6.417,0.473 9.23,1.418c2.812,0.944 5.251,2.428 7.317,4.449c2.065,2.022 3.67,4.615 4.812,7.779c1.143,3.164 1.714,6.988 1.714,11.471l0,47.53l-12.195,-0l-0,-46.937c-0,-3.736 -0.627,-6.724 -1.879,-8.966c-1.253,-2.241 -3.022,-3.878 -5.307,-4.911c-2.285,-1.033 -4.966,-1.549 -8.043,-1.549c-3.603,0 -6.614,0.637 -9.031,1.912c-2.417,1.274 -4.351,3.032 -5.801,5.274c-1.45,2.241 -2.494,4.801 -3.131,7.68c-0.638,2.878 -0.956,5.922 -0.956,9.13Zm46.211,-6.724l-8.174,2.505c0.044,-3.912 0.692,-7.669 1.945,-11.273c1.252,-3.604 3.076,-6.812 5.471,-9.625c2.395,-2.812 5.351,-5.043 8.867,-6.691c3.516,-1.648 7.537,-2.472 12.064,-2.472c3.823,0 7.218,0.506 10.185,1.516c2.966,1.011 5.471,2.56 7.515,4.648c2.043,2.087 3.593,4.757 4.647,8.01c1.055,3.252 1.582,7.119 1.582,11.602l0,46.871l-12.261,-0l-0,-47.003c-0,-3.999 -0.626,-7.109 -1.879,-9.328c-1.252,-2.219 -3.01,-3.78 -5.274,-4.68c-2.263,-0.901 -4.955,-1.352 -8.075,-1.352c-2.681,0 -5.054,0.462 -7.12,1.384c-2.065,0.923 -3.801,2.187 -5.208,3.791c-1.406,1.604 -2.472,3.439 -3.197,5.505c-0.725,2.065 -1.088,4.263 -1.088,6.592Z" style="fill:#111d4e;fill-rule:nonzero;stroke:#111d4e;stroke-width:1px;stroke-linecap:butt;stroke-miterlimit:2;"/><path d="M469.779,535.173l-31.775,87.479l-12.987,-0l36.587,-95.983l8.373,-0l-0.198,8.504Zm26.632,87.479l-31.84,-87.479l-0.198,-8.504l8.372,-0l36.719,95.983l-13.053,-0Zm-1.648,-35.532l0,10.415l-53.924,0l-0,-10.415l53.924,-0Z" style="fill:#111d4e;fill-rule:nonzero;stroke:#111d4e;stroke-width:1px;stroke-linecap:butt;stroke-miterlimit:2;"/><path d="M532.669,562.53l-0,60.122l-12.196,-0l0,-71.328l11.866,-0l0.33,11.206Zm22.282,-11.602l-0.066,11.339c-1.011,-0.22 -1.967,-0.363 -2.868,-0.429c-0.901,-0.066 -1.923,-0.099 -3.065,-0.099c-2.813,0 -5.296,0.44 -7.45,1.319c-2.153,0.879 -3.977,2.109 -5.471,3.691c-1.494,1.583 -2.67,3.461 -3.527,5.637c-0.857,2.175 -1.417,4.559 -1.681,7.152l-3.428,1.978c-0,-4.307 0.428,-8.35 1.285,-12.13c0.857,-3.779 2.187,-7.13 3.989,-10.053c1.802,-2.922 4.098,-5.208 6.889,-6.856c2.79,-1.648 6.119,-2.472 9.987,-2.472c0.879,0 1.89,0.099 3.032,0.297c1.143,0.198 1.934,0.406 2.374,0.626Z" style="fill:#111d4e;fill-rule:nonzero;stroke:#111d4e;stroke-width:1px;stroke-linecap:butt;stroke-miterlimit:2;"/><path d="M719.823,612.631l-0,10.021l-51.881,-0l-0,-10.021l51.881,0Zm-1.912,-52.672l-47.201,62.693l-7.449,-0l0,-8.966l46.871,-62.362l7.779,-0l-0,8.635Zm-5.406,-8.635l0,10.086l-48.717,-0l0,-10.086l48.717,-0Z" style="fill:#111d4e;fill-rule:nonzero;stroke:#111d4e;stroke-width:1px;stroke-linecap:butt;stroke-miterlimit:2;"/><path d="M762.211,623.97c-4.967,0 -9.46,-0.846 -13.481,-2.538c-4.022,-1.692 -7.472,-4.076 -10.35,-7.152c-2.879,-3.077 -5.087,-6.725 -6.626,-10.944c-1.538,-4.219 -2.307,-8.833 -2.307,-13.843l0,-2.769c0,-5.801 0.857,-10.976 2.571,-15.525c1.714,-4.548 4.043,-8.405 6.988,-11.569c2.944,-3.164 6.285,-5.56 10.02,-7.186c3.736,-1.626 7.603,-2.439 11.603,-2.439c5.098,0 9.503,0.879 13.217,2.637c3.714,1.758 6.757,4.208 9.13,7.35c2.373,3.143 4.131,6.834 5.274,11.075c1.143,4.241 1.714,8.867 1.714,13.877l-0,5.472l-53.265,-0l-0,-9.955l41.069,0l0,-0.923c-0.175,-3.164 -0.824,-6.24 -1.944,-9.229c-1.121,-2.988 -2.89,-5.449 -5.307,-7.383c-2.417,-1.934 -5.713,-2.901 -9.888,-2.901c-2.769,0 -5.318,0.583 -7.647,1.747c-2.33,1.165 -4.329,2.89 -5.999,5.175c-1.67,2.286 -2.967,5.076 -3.89,8.372c-0.923,3.297 -1.384,7.098 -1.384,11.405l-0,2.769c-0,3.384 0.472,6.559 1.417,9.526c0.945,2.966 2.329,5.57 4.153,7.811c1.824,2.242 4.043,4 6.658,5.274c2.615,1.275 5.593,1.912 8.933,1.912c4.307,-0 7.955,-0.879 10.943,-2.637c2.988,-1.758 5.603,-4.109 7.845,-7.054l7.383,5.867c-1.538,2.33 -3.494,4.549 -5.867,6.659c-2.373,2.109 -5.285,3.823 -8.735,5.141c-3.45,1.319 -7.526,1.978 -12.228,1.978Z" style="fill:#111d4e;fill-rule:nonzero;stroke:#111d4e;stroke-width:1px;stroke-linecap:butt;stroke-miterlimit:2;"/><path d="M806.049,526.669l31.775,-0c7.207,-0 13.305,1.098 18.293,3.296c4.988,2.197 8.79,5.438 11.405,9.723c2.615,4.285 3.922,9.548 3.922,15.789c0,4.395 -0.89,8.405 -2.67,12.031c-1.78,3.625 -4.329,6.702 -7.647,9.229c-3.318,2.527 -7.284,4.406 -11.899,5.636l-3.56,1.384l-29.862,0l-0.132,-10.349l22.545,-0c4.571,-0 8.372,-0.802 11.405,-2.407c3.032,-1.604 5.318,-3.768 6.856,-6.493c1.538,-2.725 2.307,-5.735 2.307,-9.031c0,-3.692 -0.725,-6.922 -2.175,-9.691c-1.451,-2.769 -3.725,-4.911 -6.823,-6.427c-3.099,-1.516 -7.087,-2.275 -11.965,-2.275l-19.052,0l0,85.568l-12.723,-0l0,-95.983Zm56.1,95.983l-23.336,-43.509l13.25,-0.066l23.666,42.784l0,0.791l-13.58,-0Z" style="fill:#111d4e;fill-rule:nonzero;stroke:#111d4e;stroke-width:1px;stroke-linecap:butt;stroke-miterlimit:2;"/><rect x="-15.581" y="148.711" width="950.029" height="756.951" style="fill:none;"/></svg>