<?xml version="1.0" encoding="UTF-8" standalone="no"?><!DOCTYPE svg PUBLIC "-//W3C//DTD SVG 1.1//EN" "http://www.w3.org/Graphics/SVG/1.1/DTD/svg11.dtd"><svg width="100%" height="100%" viewBox="0 0 951 1054" version="1.1" xmlns="http://www.w3.org/2000/svg" xmlns:xlink="http://www.w3.org/1999/xlink" xml:space="preserve" xmlns:serif="http://www.serif.com/" style="fill-rule:evenodd;clip-rule:evenodd;stroke-linecap:round;stroke-linejoin:round;stroke-miterlimit:1.5;"><g><g><g><g><g><g><path d="M586.112,732.522c-0.232,-2.259 0.349,-12.17 9.95,-24.12c3.703,-4.61 11.356,-13.027 26.988,-22.242" style="fill:none;stroke:#111d4e;stroke-width:11.11px;"/><path d="M659.76,639.897c0.233,2.259 -0.349,12.17 -9.949,24.12c-3.704,4.61 -11.356,13.026 -26.988,22.242" style="fill:none;stroke:#111d4e;stroke-width:11.11px;"/><path d="M586.41,548.263c-0.232,2.258 0.349,12.169 9.95,24.12c3.703,4.61 11.356,13.026 26.987,22.242" style="fill:none;stroke:#111d4e;stroke-width:11.11px;"/><path d="M586.41,548.56c-0.232,-2.259 0.349,-12.17 9.95,-24.12c3.703,-4.61 11.356,-13.026 26.987,-22.242" style="fill:none;stroke:#111d4e;stroke-width:11.11px;"/><path d="M660.058,455.935c0.233,2.259 -0.349,12.17 -9.949,24.12c-3.704,4.61 -11.356,13.026 -26.988,22.242" style="fill:none;stroke:#111d4e;stroke-width:11.11px;"/><path d="M659.661,640.689c0.232,-2.258 -0.349,-12.169 -9.949,-24.12c-3.704,-4.61 -11.356,-13.026 -26.988,-22.242" style="fill:none;stroke:#111d4e;stroke-width:11.11px;"/><path d="M660.058,732.522c0.233,-2.259 -0.349,-12.17 -9.949,-24.12c-3.704,-4.61 -11.356,-13.027 -26.988,-22.242" style="fill:none;stroke:#111d4e;stroke-width:11.11px;"/><path d="M586.41,639.897c-0.232,2.259 0.349,12.17 9.95,24.12c3.703,4.61 11.356,13.026 26.987,22.242" style="fill:none;stroke:#111d4e;stroke-width:11.11px;"/><path d="M659.76,548.263c0.233,2.258 -0.349,12.169 -9.949,24.12c-3.704,4.61 -11.356,13.026 -26.988,22.242" style="fill:none;stroke:#111d4e;stroke-width:11.11px;"/><path d="M659.76,548.56c0.233,-2.259 -0.349,-12.17 -9.949,-24.12c-3.704,-4.61 -11.356,-13.026 -26.988,-22.242" style="fill:none;stroke:#111d4e;stroke-width:11.11px;"/><path d="M586.112,455.935c-0.232,2.259 0.349,12.17 9.95,24.12c3.703,4.61 11.356,13.026 26.988,22.242" style="fill:none;stroke:#111d4e;stroke-width:11.11px;"/><path d="M586.509,640.689c-0.232,-2.258 0.349,-12.169 9.95,-24.12c3.703,-4.61 11.356,-13.026 26.988,-22.242" style="fill:none;stroke:#111d4e;stroke-width:11.11px;"/><path d="M585.23,459.36l71.486,-0" style="fill:none;stroke:#111d4e;stroke-width:4.04px;"/><path d="M590.791,473.625l60.364,-0" style="fill:none;stroke:#111d4e;stroke-width:4.04px;"/><path d="M598.734,486.305l43.683,-0" style="fill:none;stroke:#111d4e;stroke-width:4.04px;"/><path d="M588.408,640.484l71.485,-0" style="fill:none;stroke:#111d4e;stroke-width:4.04px;"/><path d="M593.968,656.334l60.365,-0" style="fill:none;stroke:#111d4e;stroke-width:4.04px;"/><path d="M601.912,671.392l43.683,-0" style="fill:none;stroke:#111d4e;stroke-width:4.04px;"/><path d="M592.379,626.063l60.365,-0" style="fill:none;stroke:#111d4e;stroke-width:4.04px;"/><path d="M600.323,611.005l43.683,0" style="fill:none;stroke:#111d4e;stroke-width:4.04px;"/><path d="M588.408,546.175l71.485,-0" style="fill:none;stroke:#111d4e;stroke-width:4.04px;"/><path d="M593.968,562.025l60.365,-0" style="fill:none;stroke:#111d4e;stroke-width:4.04px;"/><path d="M601.912,577.083l43.683,-0" style="fill:none;stroke:#111d4e;stroke-width:4.04px;"/><path d="M592.379,531.754l60.365,0" style="fill:none;stroke:#111d4e;stroke-width:4.04px;"/><path d="M600.323,516.696l43.683,0" style="fill:none;stroke:#111d4e;stroke-width:4.04px;"/><path d="M537.274,343.114l-76.01,-74.94" style="fill:none;stroke:#000;stroke-width:2.5px;"/><path d="M599.366,325.985l-138.102,-57.811" style="fill:none;stroke:#000;stroke-width:2.5px;"/><path d="M727.834,257.469l-122.044,71.727l122.044,-71.727Z" style="fill:none;stroke:#000;stroke-width:2.5px;"/><path d="M666.812,352.749l61.022,-95.28l-110.268,167.007l99.562,-71.727l109.197,-23.553l-78.151,70.657l-130.608,24.623l116.691,17.129l101.704,44.964l-129.539,-7.494l-88.856,-54.599" style="fill:none;stroke:#000;stroke-width:2.5px;"/><path d="M464.475,376.301l69.587,-32.117" style="fill:none;stroke:#000;stroke-width:2.5px;"/><path d="M612.213,425.547l-152.02,-48.175" style="fill:none;stroke:#000;stroke-width:2.5px;"/><path d="M536.203,342.043l76.01,83.504" style="fill:none;stroke:#000;stroke-width:2.5px;"/><path d="M604.719,330.267l9.635,90.998l-9.635,-90.998Z" style="fill:none;stroke:#000;stroke-width:2.5px;"/><path d="M461.799,252.116c9.588,-0 17.396,7.808 17.396,17.396c0,9.589 -7.808,17.397 -17.396,17.397c-9.589,0 -17.397,-7.808 -17.397,-17.397c0,-9.588 7.808,-17.396 17.397,-17.396Z" style="fill:#ab495d;"/><path d="M600.972,308.32c9.589,0 17.397,7.808 17.397,17.397c-0,9.589 -7.808,17.397 -17.397,17.397c-9.589,-0 -17.397,-7.808 -17.397,-17.397c0,-9.589 7.808,-17.397 17.397,-17.397Z" style="fill:#34a5ac;"/><path d="M724.087,241.41c9.588,0 17.396,7.808 17.396,17.397c0,9.588 -7.808,17.396 -17.396,17.396c-9.589,0 -17.397,-7.808 -17.397,-17.396c0,-9.589 7.808,-17.397 17.397,-17.397Z" style="fill:#34a5ac;"/><path d="M662.529,329.732c9.589,-0 17.397,7.808 17.397,17.396c-0,9.589 -7.808,17.397 -17.397,17.397c-9.588,-0 -17.396,-7.808 -17.396,-17.397c-0,-9.588 7.808,-17.396 17.396,-17.396Z" style="fill:#34a5ac;"/><path d="M820.437,316.35c9.589,-0 17.397,7.808 17.397,17.396c0,9.589 -7.808,17.397 -17.397,17.397c-9.588,-0 -17.396,-7.808 -17.396,-17.397c-0,-9.588 7.808,-17.396 17.396,-17.396Z" style="fill:#bababa;"/><path d="M716.057,332.408c9.589,-0 17.397,7.808 17.397,17.397c0,9.588 -7.808,17.396 -17.397,17.396c-9.588,0 -17.396,-7.808 -17.396,-17.396c-0,-9.589 7.808,-17.397 17.396,-17.397Z" style="fill:#bababa;"/><path d="M740.145,377.907c9.589,-0 17.397,7.808 17.397,17.397c-0,9.588 -7.808,17.396 -17.397,17.396c-9.588,0 -17.396,-7.808 -17.396,-17.396c-0,-9.589 7.808,-17.397 17.396,-17.397Z" style="fill:#bababa;"/><path d="M833.819,463.552c9.589,-0 17.397,7.808 17.397,17.397c0,9.588 -7.808,17.396 -17.397,17.396c-9.588,0 -17.396,-7.808 -17.396,-17.396c-0,-9.589 7.808,-17.397 17.396,-17.397Z" style="fill:#dd73db;"/><path d="M702.675,458.199c9.589,0 17.397,7.808 17.397,17.397c0,9.588 -7.808,17.396 -17.397,17.396c-9.588,0 -17.396,-7.808 -17.396,-17.396c-0,-9.589 7.808,-17.397 17.396,-17.397Z" style="fill:#dd73db;"/><path d="M729.44,423.406c9.588,-0 17.396,7.808 17.396,17.396c0,9.589 -7.808,17.397 -17.396,17.397c-9.589,0 -17.397,-7.808 -17.397,-17.397c-0,-9.588 7.808,-17.396 17.397,-17.396Z" style="fill:#dd73db;"/><path d="M459.122,361.848c9.589,0 17.397,7.809 17.397,17.397c0,9.589 -7.808,17.397 -17.397,17.397c-9.588,-0 -17.396,-7.808 -17.396,-17.397c-0,-9.588 7.808,-17.397 17.396,-17.397Z" style="fill:#ab495d;"/><path d="M534.062,327.055c9.588,0 17.396,7.808 17.396,17.397c0,9.588 -7.808,17.396 -17.396,17.396c-9.589,0 -17.397,-7.808 -17.397,-17.396c0,-9.589 7.808,-17.397 17.397,-17.397Z" style="fill:#ab495d;"/><path d="M611.678,407.347c9.588,0 17.396,7.808 17.396,17.397c0,9.589 -7.808,17.397 -17.396,17.397c-9.589,-0 -17.397,-7.808 -17.397,-17.397c-0,-9.589 7.808,-17.397 17.397,-17.397Z" style="fill:#ab495d;"/></g></g></g></g></g></g><g transform="matrix(135.009,0,0,135.009,893.684,622.652)"></g><text x="47.306px" y="622.652px" style="font-family:'Roboto-Regular', 'Roboto';font-size:135.009px;fill:#111d4e;stroke:#111d4e;stroke-width:1px;stroke-linecap:butt;stroke-miterlimit:2;">SummAr   z<tspan x="738.898px " y="622.652px ">e</tspan>R</text><rect x="0" y="148.711" width="950.029" height="756.951" style="fill:none;"/><path d="M30.43,272.652l-5.821,514.354l456.934,257.893l456.935,-255.028l-1.455,-524.383l-455.48,-256.46l-451.113,263.624Z" style="fill:none;stroke:#111d4e;stroke-width:18.06px;"/></svg>